<?xml version="1.0" encoding="UTF-8"?>
<!DOCTYPE svg  PUBLIC '-//W3C//DTD SVG 1.1//EN'  'http://www.w3.org/Graphics/SVG/1.1/DTD/svg11.dtd'>
<svg width="334.72" height="161.6" version="1.1" viewBox="23.541 169.2 424.72 161.6" xml:space="preserve" xmlns="http://www.w3.org/2000/svg">
<g transform="matrix(2.25 0 0 2.25 321.54 249.99)">
<path transform="translate(-87.45 17.37)" d="m17.5-35.65q3.3 0 5.95 1 2.65 1 4.95 2.95l-4.35 5.15q-1.55-1.15-3-1.75-1.45-0.6-3.1-0.6-3.3 0-5.15 2.85-1.85 2.85-1.85 8.6t1.88 8.55q1.87 2.8 5.22 2.8 1.8 0 3.33-0.73 1.52-0.72 3.32-2.12l4.1 5.2q-2.05 2.05-4.92 3.35-2.88 1.3-6.23 1.3-4.95 0-8.62-2.13-3.68-2.12-5.68-6.25-2-4.12-2-9.97 0-5.7 2.05-9.8 2.05-4.1 5.7-6.25 3.65-2.15 8.4-2.15zm14.15 0.9h22.05l-0.95 6.55h-11.85v7.4h10.35v6.35h-10.35v7.9h12.65v6.55l-21.9 3.757e-28v-34.75zm44.75 34.75-6.81-12.8h-2.54v12.8h-9.25v-34.75h12.04q7.36 0 10.98 2.65 3.63 2.65 3.63 8.15 0 3.3-1.53 5.5-1.52 2.2-4.87 3.95l8.65 14.5-10.3-5.01e-28zm-9.35-28.3v9.2h3.1q4.8 0 4.8-4.85 0-2.25-1.33-3.3-1.32-1.05-3.97-1.05h-2.6zm19.39-6.45h27.1l-0.95 7.05h-8.2v27.7h-9.25v-27.7h-8.7v-7.05z" fill="#206bc4" stroke-linecap="round" vector-effect="non-scaling-stroke"/>
</g>
<g transform="translate(250 250)">
<path transform="translate(-197.76 -52.1)" d="m0 104.2v-104.2h395.52v104.2z" fill-opacity="0" stroke-linecap="round" stroke-opacity="0" vector-effect="non-scaling-stroke"/>
</g>
</svg>
