<svg xmlns="http://www.w3.org/2000/svg" version="1.1" width="395.9464" height="114.56400000000001" viewBox="122.04679999999999 262.718 395.9464 114.56400000000001" xml:space="preserve">
<g transform="matrix(3.56 0 0 3.56 320.02 320)" id="SxLwb-EC91yojt_cgLeb0"  >
<path style="stroke: none; stroke-width: 1; stroke-dasharray: none; stroke-linecap: butt; stroke-dashoffset: 0; stroke-linejoin: miter; stroke-miterlimit: 4; fill: rgb(32,107,196); fill-rule: nonzero; opacity: 1;" vector-effect="non-scaling-stroke"  transform=" translate(-57.37, 15.5)" d="M 21.6 -6.3 L 21.6 -1.0999999999999996 Q 18.95 0.45 15 0.45 Q 9.15 0.45 5.529999999999999 -3.25 Q 1.9 -6.95 1.9 -12.6 Q 1.95 -18.15 5.529999999999999 -21.95 Q 9.1 -25.75 15.299999999999999 -25.75 Q 19 -25.75 21.599999999999998 -24.35 L 21.599999999999998 -19.05 Q 19.099999999999998 -20.650000000000002 15.899999999999999 -20.650000000000002 Q 12.399999999999999 -20.650000000000002 10.249999999999998 -18.450000000000003 Q 8.099999999999998 -16.250000000000004 8.049999999999997 -12.600000000000003 Q 8.149999999999997 -9.000000000000004 10.229999999999997 -6.800000000000003 Q 12.299999999999997 -4.600000000000003 15.849999999999998 -4.600000000000003 Q 18.95 -4.600000000000003 21.599999999999998 -6.300000000000003 Z M 46.1 -6.6 L 46.1 -1.3999999999999995 Q 43.45 0.25 38.45 0.25 Q 32.400000000000006 0.25 28.900000000000002 -3.35 Q 25.400000000000002 -6.95 25.400000000000002 -12.65 Q 25.400000000000002 -18.7 28.700000000000003 -22.15 Q 32 -25.599999999999998 36.95 -25.599999999999998 Q 41.900000000000006 -25.599999999999998 44.800000000000004 -22.599999999999998 Q 47.7 -19.599999999999998 47.7 -13.849999999999998 Q 47.7 -12.449999999999998 47.35 -10.249999999999998 L 31.450000000000003 -10.249999999999998 Q 32.1 -7.499999999999998 34.17 -6.049999999999998 Q 36.25 -4.599999999999998 39.35 -4.599999999999998 Q 43.35 -4.599999999999998 46.1 -6.599999999999998 Z M 37.1 -20.9 Q 34.95 -20.9 33.370000000000005 -19.33 Q 31.800000000000004 -17.75 31.350000000000005 -14.749999999999998 L 42 -14.749999999999998 L 42 -15.499999999999998 Q 41.9 -17.95 40.67 -19.43 Q 39.45 -20.9 37.1 -20.9 Z M 59.2 -13.099999999999998 L 59.2 0 L 53.150000000000006 0 L 53.2 -25.35 L 59.2 -25.35 L 59.2 -20.85 Q 60.95 -25.55 65.60000000000001 -25.55 Q 66.65 -25.55 67.30000000000001 -25.400000000000002 L 67.30000000000001 -19.6 Q 66.15 -20.1 64.75000000000001 -20.1 Q 62.30000000000001 -20.1 60.750000000000014 -18.1 Q 59.20000000000002 -16.1 59.20000000000002 -13.100000000000001 Z M 84.84 -5.749999999999998 L 84.84 -0.6 Q 83.09 0.25 80.34 0.25 Q 72.14 0.25 72.14 -8.05 L 72.14 -20.85 L 68.34 -20.85 L 68.34 -25.35 L 72.14 -25.35 L 72.14 -31.450000000000003 L 78.14 -31.450000000000003 L 78.14 -25.35 L 84.44 -25.35 L 84.44 -20.85 L 78.14 -20.85 L 78.14 -7.950000000000001 Q 78.14 -6.350000000000001 78.99 -5.530000000000001 Q 79.83999999999999 -4.700000000000001 81.33999999999999 -4.700000000000001 Q 83.24 -4.700000000000001 84.83999999999999 -5.750000000000001 Z M 112.84 -19.65 L 112.84 -14.249999999999998 L 103.64 -14.249999999999998 L 103.64 -5.099999999999998 L 98.09 -5.099999999999998 L 98.09 -14.249999999999998 L 89.04 -14.249999999999998 L 89.04 -19.65 L 98.09 -19.65 L 98.09 -28.9 L 103.64 -28.9 L 103.64 -19.65 L 112.84 -19.65 Z" stroke-linecap="round" />
</g>
</svg>
